<svg xmlns="http://www.w3.org/2000/svg" width="286" height="286" viewBox="0 0 286 286">
  <g id="qibla" transform="translate(-387 -237)">
    <circle id="Ellipse_14" data-name="Ellipse 14" cx="143" cy="143" r="143" transform="translate(387 237)" fill="none"/>
    <circle id="Ellipse_13" data-name="Ellipse 13" cx="128" cy="128" r="128" transform="translate(402 252)" fill="none"/>
    <g id="qibla_1_" data-name="qibla (1)" transform="translate(515 237)">
      <g id="Group_9" data-name="Group 9" transform="translate(0.438 0.438)">
        <g id="Group_3" data-name="Group 3" transform="translate(0.84 0.84)">
          <circle id="Ellipse_5" data-name="Ellipse 5" cx="13.722" cy="13.722" r="13.722" fill="#80d261"/>
        </g>
        <g id="Group_4" data-name="Group 4" transform="translate(11.882 0.929)">
          <path id="Path_1" data-name="Path 1" d="M226.659,36.958a13.732,13.732,0,0,1-16.4,13.46,13.724,13.724,0,0,0,4.256-27.094A13.726,13.726,0,0,1,226.659,36.958Z" transform="translate(-210.256 -23.325)" fill="#68ca44"/>
        </g>
        <g id="Group_5" data-name="Group 5">
          <path id="Path_2" data-name="Path 2" d="M33.248,25.549l3.234-3.234a.4.4,0,0,0,0-.56l-3.234-3.234a.4.4,0,0,1-.116-.28v-6.7a.4.4,0,0,0-.4-.4H25.829a.4.4,0,0,1-.28-.116L22.316,7.589a.4.4,0,0,0-.56,0L18.522,11.03a.4.4,0,0,1-.28.116H11.335a.4.4,0,0,0-.4.4v6.7a.4.4,0,0,1-.116.28L7.589,21.755a.4.4,0,0,0,0,.56l3.233,3.234a.4.4,0,0,1,.116.28v6.359a.4.4,0,0,0,.4.4h6.906a.4.4,0,0,1,.28.116l3.233,3.78a.4.4,0,0,0,.56,0l3.233-3.78a.4.4,0,0,1,.28-.116h6.906a.4.4,0,0,0,.4-.4V25.829A.4.4,0,0,1,33.248,25.549Z" transform="translate(-7.473 -7.473)" fill="#fef1da"/>
        </g>
        <g id="Group_6" data-name="Group 6" transform="translate(13.966 25.112)">
          <path id="Path_3" data-name="Path 3" d="M249.015,436.045h1.193a.4.4,0,0,0-.28.116l-3.233,3.78a.4.4,0,0,1-.56,0l-.316-.37,2.917-3.41A.4.4,0,0,1,249.015,436.045Z" transform="translate(-245.818 -436.045)" fill="#fae2c0"/>
        </g>
        <g id="Group_7" data-name="Group 7" transform="translate(13.965 0)">
          <path id="Path_4" data-name="Path 4" d="M249.927,11.033a.4.4,0,0,0,.28.116h-1.193a.4.4,0,0,1-.28-.116l-2.917-3.1.316-.337a.4.4,0,0,1,.56,0Z" transform="translate(-245.817 -7.476)" fill="#fae2c0"/>
        </g>
        <g id="Group_8" data-name="Group 8" transform="translate(24.069 3.673)">
          <path id="Path_5" data-name="Path 5" d="M423.189,81.335l-3.233,3.234a.393.393,0,0,0-.116.28v6.359a.4.4,0,0,1-.4.4H418.25a.4.4,0,0,0,.4-.4V84.849a.4.4,0,0,1,.116-.28L422,81.335a.4.4,0,0,0,0-.56l-3.234-3.234a.4.4,0,0,1-.116-.28v-6.7a.4.4,0,0,0-.4-.4h1.193a.4.4,0,0,1,.4.4v6.7a.394.394,0,0,0,.116.28l3.233,3.234A.4.4,0,0,1,423.189,81.335Z" transform="translate(-418.25 -70.166)" fill="#fae2c0"/>
        </g>
      </g>
      <g id="Group_10" data-name="Group 10" transform="translate(9.709 9.479)">
        <path id="Path_6" data-name="Path 6" d="M209.249,204.113H200.12a.294.294,0,0,1-.294-.294V193.554a.294.294,0,0,1,.294-.294h9.129a.294.294,0,0,1,.294.294v10.265A.294.294,0,0,1,209.249,204.113Z" transform="translate(-199.826 -193.26)" fill="#685e68"/>
      </g>
      <g id="Group_11" data-name="Group 11" transform="translate(18.059 9.479)">
        <path id="Path_7" data-name="Path 7" d="M290.217,193.457v6.954a.2.2,0,0,1-.2.2H288.85a.2.2,0,0,0,.2-.2v-6.954a.2.2,0,0,0-.2-.2h1.168A.2.2,0,0,1,290.217,193.457Z" transform="translate(-288.85 -193.258)" fill="#554e56"/>
      </g>
      <g id="Group_13" data-name="Group 13" transform="translate(9.709 12.372)">
        <g id="Group_12" data-name="Group 12">
          <path id="Path_8" data-name="Path 8" d="M199.825,220.4h6.536v2.24h-6.536Z" transform="translate(-199.825 -220.398)" fill="#fee45a"/>
        </g>
      </g>
      <g id="Group_15" data-name="Group 15" transform="translate(18.258 12.372)">
        <g id="Group_14" data-name="Group 14">
          <path id="Path_9" data-name="Path 9" d="M292.248,220.4h1.168v2.24h-1.168Z" transform="translate(-292.248 -220.398)" fill="#fed402"/>
        </g>
      </g>
      <g id="Group_18" data-name="Group 18" transform="translate(0 0)">
        <path id="Path_13" data-name="Path 13" d="M29.756,14.41l-.65-.65a14.022,14.022,0,0,0-2.571-6.978V4.507a.835.835,0,0,0-.834-.834H23.5A14.023,14.023,0,0,0,16.2.891L15.6.254,15.59.244a.834.834,0,0,0-1.18,0L14.4.254,13.8.89A14.024,14.024,0,0,0,6.5,3.673H4.3a.835.835,0,0,0-.834.834V6.781a14.021,14.021,0,0,0-2.572,6.98l-.649.649a.834.834,0,0,0,0,1.18l.65.65a14.021,14.021,0,0,0,2.572,6.978v1.935a.835.835,0,0,0,.834.834H6.068a14.027,14.027,0,0,0,7.792,3.127l.527.617a.832.832,0,0,0,1.226,0l.527-.617a14.028,14.028,0,0,0,7.793-3.127H25.7a.835.835,0,0,0,.834-.834V23.217a14.02,14.02,0,0,0,2.571-6.978l.65-.65a.834.834,0,0,0,0-1.18ZM26.534,8.4a13.134,13.134,0,0,1,1.559,4.346l-1.559-1.559ZM12.867,1.886,11.188,3.673H8.053A13.133,13.133,0,0,1,12.867,1.886ZM3.466,8.4v2.788L1.9,12.75A13.132,13.132,0,0,1,3.466,8.4Zm0,13.2a13.131,13.131,0,0,1-1.56-4.347l1.56,1.56Zm4.063,4.39h3.657l1.84,2.151A13.139,13.139,0,0,1,7.529,25.988Zm9.446,2.151,1.84-2.151h3.657A13.138,13.138,0,0,1,16.975,28.138Zm9.56-6.539V18.811l1.559-1.559A13.134,13.134,0,0,1,26.534,21.6ZM25.9,18.2a.829.829,0,0,0-.244.59v6.318H18.794a.829.829,0,0,0-.59.244l-.023.025L15,29.1l-3.181-3.719-.023-.025a.829.829,0,0,0-.59-.244H4.341V18.794A.828.828,0,0,0,4.1,18.2L.893,15l3.2-3.2a.829.829,0,0,0,.244-.59V4.549h6.865A.829.829,0,0,0,11.8,4.3l.009-.01L15,.9l3.195,3.4.009.01a.829.829,0,0,0,.59.244h.937a.438.438,0,0,0,0-.876h-.918l-1.68-1.787a13.134,13.134,0,0,1,4.817,1.787h-.165a.438.438,0,1,0,0,.876h3.874v6.657a.828.828,0,0,0,.244.59l3.2,3.2Z" transform="translate(0 0)"/>
        <circle id="Ellipse_6" data-name="Ellipse 6" cx="0.438" cy="0.438" r="0.438" transform="translate(14.562 4.68)"/>
        <path id="Path_14" data-name="Path 14" d="M248.965,416.858a.438.438,0,1,0,.438.438A.438.438,0,0,0,248.965,416.858Z" transform="translate(-233.965 -392.433)"/>
        <circle id="Ellipse_7" data-name="Ellipse 7" cx="0.438" cy="0.438" r="0.438" transform="translate(7.581 7.572)"/>
        <circle id="Ellipse_8" data-name="Ellipse 8" cx="0.438" cy="0.438" r="0.438" transform="translate(21.543 21.534)"/>
        <circle id="Ellipse_9" data-name="Ellipse 9" cx="0.438" cy="0.438" r="0.438" transform="translate(4.69 14.553)"/>
        <circle id="Ellipse_10" data-name="Ellipse 10" cx="0.438" cy="0.438" r="0.438" transform="translate(24.435 14.553)"/>
        <circle id="Ellipse_11" data-name="Ellipse 11" cx="0.438" cy="0.438" r="0.438" transform="translate(7.581 21.534)"/>
        <circle id="Ellipse_12" data-name="Ellipse 12" cx="0.438" cy="0.438" r="0.438" transform="translate(21.543 7.572)"/>
      </g>
      <path id="Path_12" data-name="Path 12" d="M202.041,185.787h-8.783a.906.906,0,0,0-.9.9v9.876a.906.906,0,0,0,.9.9h1.1a.622.622,0,0,0,0-1.244H193.6v-3.758H201.7v3.758h-4.513a.622.622,0,0,0,0,1.244h4.852a.906.906,0,0,0,.9-.9v-9.876A.906.906,0,0,0,202.041,185.787Zm-.339,5.44H193.6v-1.938H201.7Zm0-3.182H193.6v-1.015H201.7Z" transform="translate(-183.082 -176.745)"/>
    </g>
  </g>
</svg>
